<svg id="Capa_1" data-name="Capa 1" xmlns="http://www.w3.org/2000/svg" viewBox="0 0 845.7 98.21"><defs><style>.cls-1{fill:#fff;}</style></defs><rect class="cls-1" y="-0.25" width="15.7" height="98.4"/><path class="cls-1" d="M29.3.5V98.15H44.67V16.91c3.72.49,21.67,3.23,32.59,18.87a43.38,43.38,0,0,1,7.07,17.4l-.39,45H99.32V52.44S109.71,16.49,138,16.7V98.15h15.37V1.33a56.37,56.37,0,0,0-28.67,1.45C104.76,9.21,95.09,25,92.67,29.17A63.5,63.5,0,0,0,29.3.5Z"/><path class="cls-1" d="M167.27,98.15l16,.06-.47-55.33a32.67,32.67,0,0,1,11.84-19.74c8.14-6.24,16.88-6.38,20.73-6.44s11.1-.17,18.34,4.37c10.38,6.51,13,17.76,13.5,20.36q.63,28.37,1.25,56.72l15.22.06q-.08-28.36-.16-56.73c-.72-4.32-3.89-20.07-18-31C230-1.64,207.69-2.7,190.8,7.35c-19.21,11.42-23,32.19-23.53,35.38Z"/><rect class="cls-1" x="207.71" y="61.27" width="15.58" height="15.58"/><path class="cls-1" d="M319.12,40.92V56.86h43.24V82.27l-40.24.15a33.73,33.73,0,0,1-28.57-36A33.92,33.92,0,0,1,324,15.82l38.35-.31V27.18h15.31V0H325C322,0,303.71-.12,289.61,14.72,276,29.06,276.52,46.58,276.66,49.6a50.79,50.79,0,0,0,12.47,31.72c13.58,15.33,31.78,16.57,35.2,16.74l53.5-.33V40.92Z"/><rect class="cls-1" x="388.24" width="16.1" height="98.06"/><path class="cls-1" d="M417.38,1.27l.06,96.81,15.37,0V16.78A65.1,65.1,0,0,1,463.28,25c36.13,20.65,35.72,70.3,35.66,73h15.53q0-48.53-.08-97.07L498.68.7,498.34,36c-4.78-6.67-21.68-28.47-51.4-34.5A79,79,0,0,0,417.38,1.27Z"/><path class="cls-1" d="M626.29.24Q626.2,8.12,626.1,16H543.49V82.85h82.6V98.08H528.18V-.17Z"/><rect class="cls-1" x="578.5" y="41.55" width="15.41" height="15.41"/><path class="cls-1" d="M638.31-.07V98.07h0A89.7,89.7,0,0,0,680,93.75,88,88,0,0,0,718.1,67.36a90.4,90.4,0,0,0,15.61-29.5A94.45,94.45,0,0,0,737.58-.07H721.87a76.27,76.27,0,0,1-20.1,60.52,68.54,68.54,0,0,1-27.86,18.43A66.14,66.14,0,0,1,654,82.44V-.07Z"/><path class="cls-1" d="M796.24-.07c-.55,0-1.09,0-1.63,0s-1.35.06-2,.11a49.46,49.46,0,0,0,0,98.66c.67,0,1.34.08,2,.1s1.08,0,1.63,0a49.46,49.46,0,1,0,0-98.92Zm.46,83.75c-.7,0-1.4,0-2.09-.07s-1.35-.09-2-.18a34.32,34.32,0,0,1,0-68.14c.67-.09,1.34-.14,2-.18S796,15,796.7,15a34.32,34.32,0,0,1,0,68.64Z"/></svg>