<svg id="Layer_1" data-name="Layer 1" xmlns="http://www.w3.org/2000/svg" viewBox="0 0 765.27 815.46"><defs><style>.cls-1,.cls-3{fill:#1d1d1b;}.cls-2{fill:#294696;}.cls-3{font-size:157.23px;font-family:Bauhaus93, "Bauhaus 93";}</style></defs><title>Untitled-1</title><path d="M319,381.43" transform="translate(-270.72 -96.18)"/><path d="M317.42,819.75" transform="translate(-270.72 -96.18)"/><path d="M941,473.81" transform="translate(-270.72 -96.18)"/><path class="cls-1" d="M507.66,574.85c-19.71.12-39.41.36-59.12.53l48.55,50.16h61.18Z" transform="translate(-270.72 -96.18)"/><path class="cls-2" d="M648.28,96.18l371.09,163.4V422.26H957.53V320.88L648.76,176.64,339,320.88l.48,101.22-62.33.16V259L648.28,96.18" transform="translate(-270.72 -96.18)"/><path class="cls-2" d="M648.28,911.64,277.19,744.17V577.42H339V681.33L647.8,829.17,957.53,681.33l-.48-103.75,62.32-.16V744.71L648.28,911.64" transform="translate(-270.72 -96.18)"/><polyline class="cls-1" points="177.82 336.14 180.18 333.71 229.41 282.86 289.65 282.86 236.93 335.67"/><path class="cls-1" d="M831,430l-47.3-48.86H722.5l49.06,49.14C791.36,430.21,811.17,430.07,831,430Z" transform="translate(-270.72 -96.18)"/><path class="cls-1" d="M771.71,575.41l-50,50.11h60.25l49-50.66C811.22,575,791.46,575.25,771.71,575.41Z" transform="translate(-270.72 -96.18)"/><path class="cls-1" d="M695.11,427.8l36.24-94.67-53.48,2.52q-17.6,46.19-35.2,92.38C660.15,427.93,677.63,427.82,695.11,427.8Z" transform="translate(-270.72 -96.18)"/><path class="cls-1" d="M586.47,575.55l-36.54,95.89L602.79,669l35.91-93.82C621.29,575.32,603.88,575.5,586.47,575.55Z" transform="translate(-270.72 -96.18)"/><text class="cls-3" transform="translate(0 456.6) scale(0.99 1)">TINOCODE</text></svg>